<?xml version="1.0" encoding="UTF-8" standalone="no"?>
<!DOCTYPE svg PUBLIC "-//W3C//DTD SVG 1.1//EN"
 "http://www.w3.org/Graphics/SVG/1.1/DTD/svg11.dtd">
<!-- Generated by graphviz version 2.40.1 (20161225.0304)
 -->
<!-- Title: Database Structure Pages: 1 -->
<svg width="465pt" height="350pt"
 viewBox="0.00 0.00 465.14 350.00" xmlns="http://www.w3.org/2000/svg" xmlns:xlink="http://www.w3.org/1999/xlink">
<g id="graph0" class="graph" transform="scale(1 1) rotate(0) translate(4 346)">
<title>Database Structure</title>
<polygon fill="#ffffff" stroke="transparent" points="-4,4 -4,-346 461.1429,-346 461.1429,4 -4,4"/>
<text text-anchor="middle" x="228.5714" y="-326.8" font-family="Helvetica,sans-Serif" font-size="14.00" fill="#000000">ER Diagram: information_retrieval</text>
<!-- contains -->
<g id="node1" class="node">
<title>contains</title>
<polygon fill="#dddddd" stroke="transparent" points="36.1429,-205 36.1429,-225 119.1429,-225 119.1429,-205 36.1429,-205"/>
<polygon fill="none" stroke="#000000" points="36.1429,-205 36.1429,-225 119.1429,-225 119.1429,-205 36.1429,-205"/>
<text text-anchor="start" x="54.3152" y="-210.8" font-family="Times,serif" font-size="14.00" fill="#000000">contains</text>
<polygon fill="none" stroke="#000000" points="36.1429,-185 36.1429,-205 119.1429,-205 119.1429,-185 36.1429,-185"/>
<text text-anchor="start" x="52.0921" y="-191.8" font-family="Times,serif" font-size="14.00" fill="#000000">iddoc:</text>
<text text-anchor="start" x="87.0852" y="-191.8" font-family="Helvetica,sans-Serif" font-style="oblique" font-size="10.00" fill="#000000">INT</text>
<polygon fill="none" stroke="#000000" points="36.1429,-165 36.1429,-185 119.1429,-185 119.1429,-165 36.1429,-165"/>
<text text-anchor="start" x="38.7908" y="-171.8" font-family="Times,serif" font-size="14.00" fill="#000000">term:</text>
<text text-anchor="start" x="68.3357" y="-171.8" font-family="Helvetica,sans-Serif" font-style="oblique" font-size="10.00" fill="#000000">VARCHAR</text>
<polygon fill="none" stroke="#000000" points="36.1429,-145 36.1429,-165 119.1429,-165 119.1429,-145 36.1429,-145"/>
<text text-anchor="start" x="63.368" y="-151.8" font-family="Times,serif" font-size="14.00" fill="#000000">tf:</text>
<text text-anchor="start" x="75.8094" y="-151.8" font-family="Helvetica,sans-Serif" font-style="oblique" font-size="10.00" fill="#000000">INT</text>
</g>
<!-- documents -->
<g id="node2" class="node">
<title>documents</title>
<polygon fill="#dddddd" stroke="transparent" points="331.1429,-296 331.1429,-316 420.1429,-316 420.1429,-296 331.1429,-296"/>
<polygon fill="none" stroke="#000000" points="331.1429,-296 331.1429,-316 420.1429,-316 420.1429,-296 331.1429,-296"/>
<text text-anchor="start" x="345.3152" y="-301.8" font-family="Times,serif" font-size="14.00" fill="#000000">documents</text>
<polygon fill="none" stroke="#000000" points="331.1429,-276 331.1429,-296 420.1429,-296 420.1429,-276 331.1429,-276"/>
<text text-anchor="start" x="360.199" y="-282.8" font-family="Times,serif" font-size="14.00" fill="#000000">id:</text>
<text text-anchor="start" x="374.9783" y="-282.8" font-family="Helvetica,sans-Serif" font-style="oblique" font-size="10.00" fill="#000000">INT</text>
<polygon fill="none" stroke="#000000" points="331.1429,-256 331.1429,-276 420.1429,-276 420.1429,-256 331.1429,-256"/>
<text text-anchor="start" x="350.4231" y="-262.8" font-family="Times,serif" font-size="14.00" fill="#000000">text:</text>
<text text-anchor="start" x="375.3059" y="-262.8" font-family="Helvetica,sans-Serif" font-style="oblique" font-size="10.00" fill="#000000">TEXT</text>
<polygon fill="none" stroke="#000000" points="331.1429,-236 331.1429,-256 420.1429,-256 420.1429,-236 331.1429,-236"/>
<text text-anchor="start" x="334.0848" y="-242.8" font-family="Times,serif" font-size="14.00" fill="#000000">weight:</text>
<text text-anchor="start" x="376.0779" y="-242.8" font-family="Helvetica,sans-Serif" font-style="oblique" font-size="10.00" fill="#000000">DOUBLE</text>
</g>
<!-- contains&#45;&gt;documents -->
<g id="edge2" class="edge">
<title>contains:iddoc&#45;&gt;documents:id</title>
<path fill="none" stroke="#444444" stroke-dasharray="5,2" d="M119.1429,-195C218.174,-195 228.0218,-279.8856 320.9564,-285.6883"/>
<polygon fill="#444444" stroke="#444444" points="331.0358,-289.4984 321.1475,-285.6941 331.2499,-282.5016 331.0358,-289.4984"/>
</g>
<!-- terms -->
<g id="node6" class="node">
<title>terms</title>
<polygon fill="#dddddd" stroke="transparent" points="334.1429,-84 334.1429,-104 417.1429,-104 417.1429,-84 334.1429,-84"/>
<polygon fill="none" stroke="#000000" points="334.1429,-84 334.1429,-104 417.1429,-104 417.1429,-84 334.1429,-84"/>
<text text-anchor="start" x="360.0911" y="-89.8" font-family="Times,serif" font-size="14.00" fill="#000000">terms</text>
<polygon fill="none" stroke="#000000" points="334.1429,-64 334.1429,-84 417.1429,-84 417.1429,-64 334.1429,-64"/>
<text text-anchor="start" x="360.199" y="-70.8" font-family="Times,serif" font-size="14.00" fill="#000000">id:</text>
<text text-anchor="start" x="374.9783" y="-70.8" font-family="Helvetica,sans-Serif" font-style="oblique" font-size="10.00" fill="#000000">INT</text>
<polygon fill="none" stroke="#000000" points="334.1429,-44 334.1429,-64 417.1429,-64 417.1429,-44 334.1429,-44"/>
<text text-anchor="start" x="336.7908" y="-50.8" font-family="Times,serif" font-size="14.00" fill="#000000">term:</text>
<text text-anchor="start" x="366.3357" y="-50.8" font-family="Helvetica,sans-Serif" font-style="oblique" font-size="10.00" fill="#000000">VARCHAR</text>
<polygon fill="none" stroke="#000000" points="334.1429,-24 334.1429,-44 417.1429,-44 417.1429,-24 334.1429,-24"/>
<text text-anchor="start" x="345.3606" y="-30.8" font-family="Times,serif" font-size="14.00" fill="#000000">idf:</text>
<text text-anchor="start" x="364.802" y="-30.8" font-family="Helvetica,sans-Serif" font-style="oblique" font-size="10.00" fill="#000000">DOUBLE</text>
<polygon fill="none" stroke="#000000" points="334.1429,-4 334.1429,-24 417.1429,-24 417.1429,-4 334.1429,-4"/>
<text text-anchor="start" x="359.8128" y="-10.8" font-family="Times,serif" font-size="14.00" fill="#000000">df:</text>
<text text-anchor="start" x="375.3645" y="-10.8" font-family="Helvetica,sans-Serif" font-style="oblique" font-size="10.00" fill="#000000">INT</text>
</g>
<!-- contains&#45;&gt;terms -->
<g id="edge1" class="edge">
<title>contains:term&#45;&gt;terms:term</title>
<path fill="none" stroke="#444444" stroke-dasharray="5,2" d="M119.1429,-175C225.2583,-175 224.6525,-61.6732 323.8894,-54.3689"/>
<polygon fill="#444444" stroke="#444444" points="334.2687,-57.4977 324.1493,-54.3596 334.017,-50.5023 334.2687,-57.4977"/>
</g>
<!-- made -->
<g id="node3" class="node">
<title>made</title>
<polygon fill="#dddddd" stroke="transparent" points="36.1429,-94 36.1429,-114 119.1429,-114 119.1429,-94 36.1429,-94"/>
<polygon fill="none" stroke="#000000" points="36.1429,-94 36.1429,-114 119.1429,-114 119.1429,-94 36.1429,-94"/>
<text text-anchor="start" x="62.4842" y="-99.8" font-family="Times,serif" font-size="14.00" fill="#000000">made</text>
<polygon fill="none" stroke="#000000" points="36.1429,-74 36.1429,-94 119.1429,-94 119.1429,-74 36.1429,-74"/>
<text text-anchor="start" x="46.261" y="-80.8" font-family="Times,serif" font-size="14.00" fill="#000000">idquery:</text>
<text text-anchor="start" x="92.9163" y="-80.8" font-family="Helvetica,sans-Serif" font-style="oblique" font-size="10.00" fill="#000000">INT</text>
<polygon fill="none" stroke="#000000" points="36.1429,-54 36.1429,-74 119.1429,-74 119.1429,-54 36.1429,-54"/>
<text text-anchor="start" x="38.7908" y="-60.8" font-family="Times,serif" font-size="14.00" fill="#000000">term:</text>
<text text-anchor="start" x="68.3357" y="-60.8" font-family="Helvetica,sans-Serif" font-style="oblique" font-size="10.00" fill="#000000">VARCHAR</text>
<polygon fill="none" stroke="#000000" points="36.1429,-34 36.1429,-54 119.1429,-54 119.1429,-34 36.1429,-34"/>
<text text-anchor="start" x="63.368" y="-40.8" font-family="Times,serif" font-size="14.00" fill="#000000">tf:</text>
<text text-anchor="start" x="75.8094" y="-40.8" font-family="Helvetica,sans-Serif" font-style="oblique" font-size="10.00" fill="#000000">INT</text>
<polygon fill="none" stroke="#000000" points="36.1429,-14 36.1429,-34 119.1429,-34 119.1429,-14 36.1429,-14"/>
<text text-anchor="start" x="47.3606" y="-20.8" font-family="Times,serif" font-size="14.00" fill="#000000">tf1:</text>
<text text-anchor="start" x="66.802" y="-20.8" font-family="Helvetica,sans-Serif" font-style="oblique" font-size="10.00" fill="#000000">DOUBLE</text>
</g>
<!-- queries -->
<g id="node4" class="node">
<title>queries</title>
<polygon fill="#dddddd" stroke="transparent" points="331.1429,-190 331.1429,-210 420.1429,-210 420.1429,-190 331.1429,-190"/>
<polygon fill="none" stroke="#000000" points="331.1429,-190 331.1429,-210 420.1429,-210 420.1429,-190 331.1429,-190"/>
<text text-anchor="start" x="355.429" y="-195.8" font-family="Times,serif" font-size="14.00" fill="#000000">queries</text>
<polygon fill="none" stroke="#000000" points="331.1429,-170 331.1429,-190 420.1429,-190 420.1429,-170 331.1429,-170"/>
<text text-anchor="start" x="360.199" y="-176.8" font-family="Times,serif" font-size="14.00" fill="#000000">id:</text>
<text text-anchor="start" x="374.9783" y="-176.8" font-family="Helvetica,sans-Serif" font-style="oblique" font-size="10.00" fill="#000000">INT</text>
<polygon fill="none" stroke="#000000" points="331.1429,-150 331.1429,-170 420.1429,-170 420.1429,-150 331.1429,-150"/>
<text text-anchor="start" x="350.4231" y="-156.8" font-family="Times,serif" font-size="14.00" fill="#000000">text:</text>
<text text-anchor="start" x="375.3059" y="-156.8" font-family="Helvetica,sans-Serif" font-style="oblique" font-size="10.00" fill="#000000">TEXT</text>
<polygon fill="none" stroke="#000000" points="331.1429,-130 331.1429,-150 420.1429,-150 420.1429,-130 331.1429,-130"/>
<text text-anchor="start" x="334.0848" y="-136.8" font-family="Times,serif" font-size="14.00" fill="#000000">weight:</text>
<text text-anchor="start" x="376.0779" y="-136.8" font-family="Helvetica,sans-Serif" font-style="oblique" font-size="10.00" fill="#000000">DOUBLE</text>
</g>
<!-- made&#45;&gt;queries -->
<g id="edge3" class="edge">
<title>made:idquery&#45;&gt;queries:id</title>
<path fill="none" stroke="#444444" stroke-dasharray="5,2" d="M119.1429,-84C219.04,-84 227.2445,-173.5497 320.8736,-179.6712"/>
<polygon fill="#444444" stroke="#444444" points="331.0308,-183.4982 321.148,-179.6799 331.2549,-176.5018 331.0308,-183.4982"/>
</g>
<!-- made&#45;&gt;terms -->
<g id="edge4" class="edge">
<title>made:term&#45;&gt;terms:term</title>
<path fill="none" stroke="#444444" stroke-dasharray="5,2" d="M119.1429,-64C211.3453,-64 236.6786,-54.7096 324.0487,-54.0382"/>
<polygon fill="#444444" stroke="#444444" points="334.1561,-57.5 324.1429,-54.038 334.1296,-50.5 334.1561,-57.5"/>
</g>
<!-- relevant -->
<g id="node5" class="node">
<title>relevant</title>
<polygon fill="#dddddd" stroke="transparent" points="43.1429,-293 43.1429,-313 111.1429,-313 111.1429,-293 43.1429,-293"/>
<polygon fill="none" stroke="#000000" points="43.1429,-293 43.1429,-313 111.1429,-313 111.1429,-293 43.1429,-293"/>
<text text-anchor="start" x="54.6014" y="-298.8" font-family="Times,serif" font-size="14.00" fill="#000000">relevant</text>
<polygon fill="none" stroke="#000000" points="43.1429,-273 43.1429,-293 111.1429,-293 111.1429,-273 43.1429,-273"/>
<text text-anchor="start" x="51.5921" y="-279.8" font-family="Times,serif" font-size="14.00" fill="#000000">iddoc:</text>
<text text-anchor="start" x="86.5852" y="-279.8" font-family="Helvetica,sans-Serif" font-style="oblique" font-size="10.00" fill="#000000">INT</text>
<polygon fill="none" stroke="#000000" points="43.1429,-253 43.1429,-273 111.1429,-273 111.1429,-253 43.1429,-253"/>
<text text-anchor="start" x="45.761" y="-259.8" font-family="Times,serif" font-size="14.00" fill="#000000">idquery:</text>
<text text-anchor="start" x="92.4163" y="-259.8" font-family="Helvetica,sans-Serif" font-style="oblique" font-size="10.00" fill="#000000">INT</text>
</g>
<!-- relevant&#45;&gt;documents -->
<g id="edge5" class="edge">
<title>relevant:iddoc&#45;&gt;documents:id</title>
<path fill="none" stroke="#444444" stroke-dasharray="5,2" d="M111.1429,-283C205.4919,-283 231.5478,-285.7928 321.095,-285.9891"/>
<polygon fill="#444444" stroke="#444444" points="331.139,-289.5 321.1429,-285.9891 331.1467,-282.5 331.139,-289.5"/>
</g>
<!-- relevant&#45;&gt;queries -->
<g id="edge6" class="edge">
<title>relevant:idquery&#45;&gt;queries:id</title>
<path fill="none" stroke="#444444" stroke-dasharray="5,2" d="M111.1429,-263C212.1779,-263 225.805,-185.4202 321.0356,-180.2684"/>
<polygon fill="#444444" stroke="#444444" points="331.2358,-183.4988 321.1464,-180.2656 331.0499,-176.5012 331.2358,-183.4988"/>
</g>
</g>
</svg>
